<mxfile host="www.draw.io" modified="2020-02-18T06:59:23.924Z" agent="Mozilla/5.0 (X11; Linux x86_64) AppleWebKit/537.36 (KHTML, like Gecko) Chrome/79.0.3945.88 Safari/537.36" etag="ZSFMPrYL_aRNgN4sOKmQ" version="12.7.1" type="github">
  <diagram id="sJPgbdR20rskWXcdKmHD" name="Page-1">
    <mxGraphModel dx="782" dy="374" grid="1" gridSize="10" guides="1" tooltips="1" connect="1" arrows="1" fold="1" page="1" pageScale="1" pageWidth="850" pageHeight="1100" math="0" shadow="0">
      <root>
        <mxCell id="0" />
        <mxCell id="1" parent="0" />
        <mxCell id="KdQr0urOy9rvSbMQG1uy-1" value="" style="outlineConnect=0;dashed=0;verticalLabelPosition=bottom;verticalAlign=top;align=center;html=1;shape=mxgraph.aws3.mobile_client;fillColor=#D2D3D3;gradientColor=none;" parent="1" vertex="1">
          <mxGeometry x="160.63" y="244" width="30.5" height="30" as="geometry" />
        </mxCell>
        <mxCell id="KdQr0urOy9rvSbMQG1uy-2" value="" style="outlineConnect=0;dashed=0;verticalLabelPosition=bottom;verticalAlign=top;align=center;html=1;shape=mxgraph.aws3.management_console;fillColor=#D2D3D3;gradientColor=none;" parent="1" vertex="1">
          <mxGeometry x="160" y="159.5" width="31.75" height="33" as="geometry" />
        </mxCell>
        <mxCell id="KdQr0urOy9rvSbMQG1uy-3" value="" style="outlineConnect=0;dashed=0;verticalLabelPosition=bottom;verticalAlign=top;align=center;html=1;shape=mxgraph.aws3.application_load_balancer;fillColor=#F58536;gradientColor=none;" parent="1" vertex="1">
          <mxGeometry x="320.26" y="233.5" width="39" height="40" as="geometry" />
        </mxCell>
        <mxCell id="KdQr0urOy9rvSbMQG1uy-4" value="" style="outlineConnect=0;dashed=0;verticalLabelPosition=bottom;verticalAlign=top;align=center;html=1;shape=mxgraph.aws3.api_gateway;fillColor=#D9A741;gradientColor=none;" parent="1" vertex="1">
          <mxGeometry x="323.38" y="162.25" width="32.75" height="40" as="geometry" />
        </mxCell>
        <mxCell id="KdQr0urOy9rvSbMQG1uy-12" value="" style="outlineConnect=0;dashed=0;verticalLabelPosition=bottom;verticalAlign=top;align=center;html=1;shape=mxgraph.aws3.dynamo_db;fillColor=#2E73B8;gradientColor=none;" parent="1" vertex="1">
          <mxGeometry x="590" y="220" width="22" height="32.5" as="geometry" />
        </mxCell>
        <mxCell id="QD39E5jW2VNS_XY4BjCm-6" value="" style="rounded=1;arcSize=10;dashed=1;fillColor=none;gradientColor=none;dashPattern=8 3 1 3;strokeWidth=2;" vertex="1" parent="1">
          <mxGeometry x="310" y="148.5" width="59.51" height="130.75" as="geometry" />
        </mxCell>
        <mxCell id="QD39E5jW2VNS_XY4BjCm-8" value="" style="rounded=1;arcSize=10;dashed=1;strokeColor=#F59D56;fillColor=none;gradientColor=none;dashPattern=8 4;strokeWidth=2;" vertex="1" parent="1">
          <mxGeometry x="430" y="154.25" width="56.5" height="50" as="geometry" />
        </mxCell>
        <mxCell id="QD39E5jW2VNS_XY4BjCm-9" value="" style="rounded=1;arcSize=10;dashed=1;strokeColor=#F59D56;fillColor=none;gradientColor=none;dashPattern=8 4;strokeWidth=2;" vertex="1" parent="1">
          <mxGeometry x="495" y="154.5" width="65" height="50" as="geometry" />
        </mxCell>
        <mxCell id="QD39E5jW2VNS_XY4BjCm-15" value="" style="dashed=0;html=1;shape=mxgraph.aws3.permissions;fillColor=#D9A741;gradientColor=none;dashed=0;" vertex="1" parent="1">
          <mxGeometry x="415" y="118.5" width="20" height="30" as="geometry" />
        </mxCell>
        <mxCell id="QD39E5jW2VNS_XY4BjCm-17" value="" style="rounded=1;arcSize=10;dashed=0;fillColor=none;gradientColor=none;strokeWidth=2;" vertex="1" parent="1">
          <mxGeometry x="410" y="302.13" width="160" height="78.25" as="geometry" />
        </mxCell>
        <mxCell id="QD39E5jW2VNS_XY4BjCm-18" value="" style="dashed=0;html=1;shape=mxgraph.aws3.permissions;fillColor=#D9A741;gradientColor=none;dashed=0;" vertex="1" parent="1">
          <mxGeometry x="303.38" y="130.5" width="20" height="25" as="geometry" />
        </mxCell>
        <mxCell id="QD39E5jW2VNS_XY4BjCm-21" value="" style="outlineConnect=0;dashed=0;verticalLabelPosition=bottom;verticalAlign=top;align=center;html=1;shape=mxgraph.aws3.ecr;fillColor=#F58534;gradientColor=none;" vertex="1" parent="1">
          <mxGeometry x="660" y="124" width="40" height="41" as="geometry" />
        </mxCell>
        <mxCell id="QD39E5jW2VNS_XY4BjCm-24" value="" style="outlineConnect=0;dashed=0;verticalLabelPosition=bottom;verticalAlign=top;align=center;html=1;shape=mxgraph.aws3.ec2_compute_container_2;fillColor=#F58534;gradientColor=none;" vertex="1" parent="1">
          <mxGeometry x="508" y="161.5" width="40" height="34.5" as="geometry" />
        </mxCell>
        <mxCell id="QD39E5jW2VNS_XY4BjCm-25" value="" style="outlineConnect=0;dashed=0;verticalLabelPosition=bottom;verticalAlign=top;align=center;html=1;shape=mxgraph.aws3.instances;fillColor=#F58534;gradientColor=none;" vertex="1" parent="1">
          <mxGeometry x="240" y="238" width="40" height="32" as="geometry" />
        </mxCell>
        <mxCell id="QD39E5jW2VNS_XY4BjCm-26" value="" style="outlineConnect=0;dashed=0;verticalLabelPosition=bottom;verticalAlign=top;align=center;html=1;shape=mxgraph.aws3.elastic_beanstalk;fillColor=#F58534;gradientColor=none;" vertex="1" parent="1">
          <mxGeometry x="250" y="158.75" width="40" height="40" as="geometry" />
        </mxCell>
        <mxCell id="QD39E5jW2VNS_XY4BjCm-33" value="BuildCode&lt;br&gt;&lt;br&gt;RunCode&lt;br&gt;&lt;br&gt;BuildImage&lt;br&gt;&lt;br&gt;Jenkins CI/CD" style="rounded=0;whiteSpace=wrap;html=1;fillColor=none;" vertex="1" parent="1">
          <mxGeometry x="650" y="204.5" width="80" height="106" as="geometry" />
        </mxCell>
        <mxCell id="QD39E5jW2VNS_XY4BjCm-40" value="" style="outlineConnect=0;dashed=0;verticalLabelPosition=bottom;verticalAlign=top;align=center;html=1;shape=mxgraph.aws3.ecs;fillColor=#F58534;gradientColor=none;" vertex="1" parent="1">
          <mxGeometry x="560" y="125.75" width="30" height="28.5" as="geometry" />
        </mxCell>
        <mxCell id="QD39E5jW2VNS_XY4BjCm-41" value="" style="outlineConnect=0;dashed=0;verticalLabelPosition=bottom;verticalAlign=top;align=center;html=1;shape=mxgraph.aws3.application_load_balancer;fillColor=#F58534;gradientColor=none;" vertex="1" parent="1">
          <mxGeometry x="471.5" y="233" width="44" height="42" as="geometry" />
        </mxCell>
        <mxCell id="QD39E5jW2VNS_XY4BjCm-42" value="" style="rounded=1;arcSize=10;dashed=0;fillColor=none;gradientColor=none;strokeWidth=2;" vertex="1" parent="1">
          <mxGeometry x="420" y="147.25" width="150" height="62.75" as="geometry" />
        </mxCell>
        <mxCell id="QD39E5jW2VNS_XY4BjCm-43" value="" style="rounded=1;arcSize=10;dashed=1;strokeColor=#F59D56;fillColor=none;gradientColor=none;dashPattern=8 4;strokeWidth=2;" vertex="1" parent="1">
          <mxGeometry x="415" y="316.25" width="56.5" height="50" as="geometry" />
        </mxCell>
        <mxCell id="QD39E5jW2VNS_XY4BjCm-44" value="" style="outlineConnect=0;dashed=0;verticalLabelPosition=bottom;verticalAlign=top;align=center;html=1;shape=mxgraph.aws3.ec2_compute_container_2;fillColor=#F58534;gradientColor=none;" vertex="1" parent="1">
          <mxGeometry x="438.25" y="165" width="40" height="34.5" as="geometry" />
        </mxCell>
        <mxCell id="QD39E5jW2VNS_XY4BjCm-45" value="" style="outlineConnect=0;dashed=0;verticalLabelPosition=bottom;verticalAlign=top;align=center;html=1;shape=mxgraph.aws3.ec2_compute_container_2;fillColor=#F58534;gradientColor=none;" vertex="1" parent="1">
          <mxGeometry x="520" y="324" width="40" height="34.5" as="geometry" />
        </mxCell>
        <mxCell id="QD39E5jW2VNS_XY4BjCm-46" value="" style="outlineConnect=0;dashed=0;verticalLabelPosition=bottom;verticalAlign=top;align=center;html=1;shape=mxgraph.aws3.ec2_compute_container_2;fillColor=#F58534;gradientColor=none;" vertex="1" parent="1">
          <mxGeometry x="424" y="324" width="40" height="34.5" as="geometry" />
        </mxCell>
        <mxCell id="QD39E5jW2VNS_XY4BjCm-47" value="" style="rounded=1;arcSize=10;dashed=1;strokeColor=#F59D56;fillColor=none;gradientColor=none;dashPattern=8 4;strokeWidth=2;" vertex="1" parent="1">
          <mxGeometry x="508" y="316.25" width="56.5" height="50" as="geometry" />
        </mxCell>
        <mxCell id="QD39E5jW2VNS_XY4BjCm-49" value="" style="outlineConnect=0;dashed=0;verticalLabelPosition=bottom;verticalAlign=top;align=center;html=1;shape=mxgraph.aws3.ecs;fillColor=#F58534;gradientColor=none;" vertex="1" parent="1">
          <mxGeometry x="548" y="279.25" width="30" height="28.5" as="geometry" />
        </mxCell>
        <mxCell id="QD39E5jW2VNS_XY4BjCm-52" value="" style="outlineConnect=0;dashed=0;verticalLabelPosition=bottom;verticalAlign=top;align=center;html=1;shape=mxgraph.aws3.dynamo_db;fillColor=#2E73B8;gradientColor=none;" vertex="1" parent="1">
          <mxGeometry x="590" y="280" width="22" height="32.5" as="geometry" />
        </mxCell>
        <mxCell id="QD39E5jW2VNS_XY4BjCm-53" value="" style="dashed=0;html=1;shape=mxgraph.aws3.permissions;fillColor=#D9A741;gradientColor=none;dashed=0;" vertex="1" parent="1">
          <mxGeometry x="410" y="275" width="20" height="30" as="geometry" />
        </mxCell>
        <mxCell id="QD39E5jW2VNS_XY4BjCm-54" value="" style="outlineConnect=0;dashed=0;verticalLabelPosition=bottom;verticalAlign=top;align=center;html=1;shape=mxgraph.aws3.management_console;fillColor=#D2D3D3;gradientColor=none;" vertex="1" parent="1">
          <mxGeometry x="610" y="400" width="31.75" height="33" as="geometry" />
        </mxCell>
        <mxCell id="QD39E5jW2VNS_XY4BjCm-55" value="" style="shape=image;imageAspect=0;aspect=fixed;verticalLabelPosition=bottom;verticalAlign=top;fillColor=none;image=data:image/png,iVBORw0KGgoAAAANSUhEUgAAAOEAAADhCAMAAAAJbSJIAAAAeFBMVEU+dcP///84csIubcAzb8E3ccIqa78mab/6/P7o7vfz9vuHptfc5fNVhMmXstxEecW/z+nI1uxymNHQ3O+zxuWnveHC0eqet95eisytwuOAodX1+PxBeMVsk89Yhsri6vWOq9mZs9xNf8dlj83X4fFvltAPYbx7nNI+B7nQAAAQPUlEQVR4nNVd63qqShKFvoGIosZ7vEXj9v3f8ECMikAXqxrQnPV982NmssFFd9e9qj2/a4RRPJ7OhuvJaXdMEs/zkuS4O03Ww9l0HEdh5+/3Onx2tJ8vLstNYIxSWgvhPSCE1koZE2yWl69RHHX4K7piGI/6yySlpvO8qiC0kmaz7E/jjn5JFwzj1WSjZC23Z55SedtVFyzbZhjN116gNINcjqYMvP6o7R3bKsPedCIMZ+kqWBoxmfba/FHtMfwcbYVsRu+2lGI7ak/GtsXwYy1boXcjKdcfLf2yVhhGq0HDzVlB0gxmrRzJFhjGB6/F5ctxlN6hBeHamGF8VqoDeldotf1+M8OPZeCmGVCI4NTwQDZi+L1t/fhVcDTNODZgGJ9lt+t356jODc6jM8Oob17DL4M2B2e56sgwnDlaZq5QauVoBLgx/BiYl/LLYAZux9GFYdjvRP/VQci+yzI6MByL7hQgDa3mL2AYrV+/QR8I1myJw2X4cXzXAl6hknG3DIcvUPE0hBl2yLC3k2/ml0HuWB4yh+HYe/cCXiE8zk5lMJz9hQW8Qi46YBie3ylDi5BnWDWiDHtvlqFFqCN6GEGGcfJaM7QeIgF9Y4zhWPwNGZOHEJi8gRhOg3fTqUQwbYvh7C/JmDzMqh2Gi79KMBWpszYYDv8uwXQV6024WoZ/mmB6Fmsp1jH8w1v0ClO3UWsY/lkh84CsETc0w2l7BEUKrZSS6X909l9ae3KN0iAZjlvRgykxIzeD03l9GC4Ws8VieFifT4ONBHLgEAJS9VMMv5u/PyXnnQ6rj16p6CKMeh+rw8kzLYQlBRUwJhhGScN0rjJiPY1pJyDcTy/CNIzdiYQww+0Mw2OTjyuUWM7QWPx+dWqWoNNH+3e0Mzw3cJeU2q54yfjedKsakFQTPkN3RShMsnCpNegtju5xLmP1+m0Mx64hC2GW3Hhf7q1b53SPtL3VwrDn+B6t180S0/Fau3K07BsLw4HTdtFyvW/EL8PeMSsidhyGXy57VAST5vx+OF4CF46y2givZDh2kTLSMftVhQ+n0LOpPIpVDKMj/xMKgfjbOFYe/ziKY1Xaporhmq8JzbnVWrQUvQl/I6k1xnDOtreFGrXML8OIL1WDivximWHI3qJy2U2Nb7Rkn0b1CTDsc/coJ4nABFum6/I+LTH8YD5UKHcTph5jrgepSgK9yDBk6noN5w/c0GN6OGJX9DKKDJmBGbUtb/x2ETJ9nFJkqsAwYj6u3zG/DH3eR9cFsVdg2GftCXN4AUHfP7DUly589WeGMetzma+XEOT6qubZu3lmeOYsYW0stj2wpIN+9vefGLI0xctWMANrFeWTxnhiuGVoihedwRsODIp6a2P4wXiKfIUUzYNjapn8IuYZLvElfP5ML8EWlxHilPt3OYbfuFAWx64VfRmfDK81yInTHMMz/gTZralWjR4uB/Xl8c8eDGN8o0uHMs8WMMflhH5EjB4MD/A+V8zqwNYwhBdBPST9nWEEfx+xrHz9eDQat7N5e9mjKv+fHX6Q7tbpneEK3uXVh7D3T0oTqMuomQz6HF1UYKT8V/0S/EfeA2N3hrBfaKpTrovrDtJGrN1blT7W3m9YX1WbhHBSWgyKDGFtLyya8LGBhFy6Babmy0e02xbBhrWiuX3nG8M1uoSiOq7dy79ZyCM/tDE+PkXzdfWZ3qMMxS1i88vwE93glt3jz58fIMypnKEJw+iKsJzPjE+FzJotlzRD5akMnxiOQIbiaFmBYfHbCnm4y5wons8Ol+3umGQlzF5y3G0vh9n8MWjg81DKxlhVEmrayNETQ9SrsJY9VDxA/WzV7+llkCgjs6EKt7/JCk+0NCoZXKbZcRlXlOeKs+VNaIHI7QFXhj2Q4JNJm0dliE6Yy1aRJSVZIYo6X6pSvzZR4/snVGT0cgyn4CY1tvRnlFQzQH6M5Y8q0ywZ0FCLnOYYTrDPIi6WlzrnjClYDST0104eDCNw3ZU1g41ucwaEleE3KhajO8MRtu7aXtLxUob+BFOKZn5n2Md+n7QneV+6S9GImejfGWJvtEu3LG3cgEo1rJLGh43ozY1hjGkYQ1mbDL8GA/U90WMV7H8Zoo4T8UpOCASDVeP/AHuGWv0yxH4d7dl/td00pMi8K+bt/+gLD/4ghiyWca4Ss8FaxfUDVOtfGWIhKKvBdsVnEzaVoOtSMdMtU+AearLZ3KYbOBkBADZH+wbMicr8Cw/NGWq6omvcdm9bTXkA5glnuUQPDOaTwjt9YQc2Df1JIfWUhQU9m1tQAC3auPUNCMSAPIkLaJsmUcoQE0uGDKAdumgRlmT+7hv62TJOGWIBDEm9bd9Nf2JA7lPsZ49ShpCupi0M2OvmgVZQkJ2SHi7PvyBSiWwual3b399KyVOoeV6vU4aQKCWPIau+gQPCIQUPYipMvXCDvEsRci3ubhKBJMriQ0iYbkIvQqSEJd10xaG7Tn3S2oc2XxB5kLIQVcW3N0D61BG2AHQGKDJhYg+qWqeMUl4dFRMBsU0h09SMvSn2d/YX4YlHByhChmNrM/WwL0HoXjB66QZKmu6x3eeVUiqVINLXkCx2RmJ/MRTf00NvDTCkymfgvJwbpF1NQQU2uu8hxg+lLPYdMyTOB6IuxMRDbErK4eZWvjMhCWMKCSuIk7cDXqOtGZnuGRLNVJBFvfOQYLUmPLXOzO4rKOMbCr8MPMQi0YTx9EaGkBpIIIbq630MiV0KebaJh6gzKkjzxnMIhWowdU2Zpd/dzgCzJ2XhwhNoDQmGb9SHEMMNdg6JXRp1zJDIIkK7FJQ0VLC0411KvBmUNE31YacOsL0GKwNU8zuAbBpBtR60nJIpvJmKRUFO/g6ySymrDdO7rqA0MWS1pXYp4sCSoVm06M8JkqodgJyGCeYflhozc+gopH9FQLjeIZJ+Sv1DaJORDSRdOvmEi49VuKQ+PqQ2ifok0IlxAxnFhOqw1AyMtVEjWdDCRgeQJTxQWF9NsXgpeeA7qGm7QVCjDCARZ8ZYzJsU2t3FE8nMDGbSmBjLW5AKEa3B4oPcOliFYhBhuSdBTAvz8eJyJkiTzQ+hYsFNiOYPydkeHQX26ZmPPTR/iAl7Q/fjdbOGmnwn1Kv3kwOGDmxNQ16LMzIfIFUFaA+nIhKsxXg0SlWjAwejru4LOvw/tRhY/i+gh+x0UBNFZYNSQDrgWk+D1UTVNcaO2ra/g5r+tzkk3X5qosC6NspCzNDyROXaIc9Qs921rg2sTUzqLiNYt6kyagcahNDO+61NBOtLa+fNMefIUKife/PBqS/FaoTJaNQVw7bOYvBV+y6s8/y3Rhis807qW5jnDoPyytBefbv/Jxbhyxou8Fp9qh7jht658V1CwkyAnndssuO9Vh8zK2lX5oZR0ug0CpNA8xowh+3ebwH2zFBRoRxWG+d5wFoeoSsrMKs71zODdqB8Pb0l+trutsNxxekcbbVymJ4pvQk6bwMcH3Hve0J7155bIPoma+c1yaJCUe5nJ8m5mDsb/X3Gp0eH2FP1o3cNdNLV0xb6/nf9X+WxUlNGo8MxyJqAaZ7Z1eqBWX6NOcMloejZU/8h2ENa8PTHv1tRBLb04uf39LA9UoL9uLss5tzZyiEYU8j1kKKxJPksB/a36ZsB2apAnAGqBMIOMHyZ7wOG/03RS7wNGaOutCFnrUF34RSANnc89XKjIc/SXJPbCbYXFNS0JVN1zhbAAYV8Pz7so+ui4PyNEAir61Hjm2m6Ja4CWH13caYCnCIrz8z+bQpQFsO81rwy3BnZ6CilwlyMEHXuyi1sp6u1bSmxq7V56WBzGfD4lsJsE3g+Tbl5Jrq+UiRVGi2qPzOGN3YJbTguzqcBG6W8qhjfr+EullUGXP3eqAkaFh8I/87ijCF8TtSmuFY36a0rKAIREsC1fgCeSFaeE4VH5ste1E2bimPpLALfraZ38xngvIjKWV/4vLaSUrznSIRZP1nPMRTkEjhBRmy9PK+NMXOv1L/6KL/S5jLdR2F219F4OMAuHFGw0Y3Hnatm7jHmJoplQb33ci60lioZ7LLBSaj3pFCvKcTHj6qquYmMJjtZDA8XSlZ4d45R5YdP6MMRWZ3TaTmGYDAjQ3FIMjrCpxIowxX++yzzSznNrsXAW5NEN8iQcXGKbQYta46wV/AJOJOMC8AYxownWucIc7KApavO3GP6EMPexnXIsfM871Iv1JdrEBFhyBkiTM3zxk0GL7NFChTHR7fsE8Aw4owwomay8/pBy3boTLkE9esZfi5Z0/Cpufq8K1gqbh8anRMpsxBiNhdRbqCSl1qGEesWj6IvXmD4yVqDqgtKPuPR4tBf94fZbMse8sHqRmczrykRhZ1VHG+1YonEugvOoWaMGobfvKs0S9G70j0zvLFkQpGpBoghbZfOeXfplH2xxncFkdHg5gwXzLxyOazZ/L4nc7EHWqDp1ATDzwvTjlDlAoAW7uxSR/tITKiizMowrphNS0OUw7YVg/TYdwMK605txnDGvgaxKhPfzt15VZOfmzLcn9iWLnp3nsv9h7q6ga8Bw5lg13Xg9x/y3KhfVF5h6czQ6RLL6gRB9UDLocPzRXApmV/QFWDlSFTP6SJSzj2kvr9zKf0RalhYDieGvaFDnUN6UFh3yfo9z8nZU97h6ec6MIyGnmPPJu8+YOcmdKX7ub2K2aW5f9Dra0d+3Dud2dcEPqCDyfymd6FO3XsPbjieBK6Fcfx7uVN/37nBV5jj8Ec/jsCaiZ/sUzw8Ol/K7XS3uh8O3AsNhVK79XqHfqPrHzvJlys00fFCjD92ufj4AcEJfLP+uOKfFwN/IEM/7rKHuU0IqqCDHGGNXiXxZlgv3ahn6E//DxQDumKTZthlf2hboPu/ahm6q8VXofau0DqG/tff3qj1Zf21DP2vv7yKta01CMO/vFElcJ0twJAZJX4hoNpNhOFfVRo1aoLD0B83Mqq6gRDY3W4YQz9OupzR4gKdgLW3IMPUDO92WhIXaoDWGaEM/XDyl+SNmdS1Q/IZZtXAf+YwSrI5wJmhP26l+a45tMe5P5LD0O+5xGlbh9yxrqxlMcxMuHfvVAEYak0Y+h9vlqmKfcMpl6H/uX6nTA3WnA4wN4ZZZv1dy6g0/4paF4b+Z/8tekPIPqwEGzLMkl+v36qmKn3XGcOswOu1W1WJlcsCNmDoR333GDwb2hycLzR3Zpj6GxP5Go5CTfg9fG0w9P3vs0uulsvPbN0OYBsMU46njjmK4NSIX2OGvr+/dKgetd7SpYGvYJhyHHqd6EchvQPaitEtw1SurnatC1ZhBjO2hVaFVhim+O7LFhdSSLluvD1/0RZD3w9HZ9EKyXR3bkeO6r0C7TFM0ZtORMPtKoyYTFkebh1aZZgimvc3gXJjKVSw6Y9aOXw5tM0ww3412SjOaJNsAIhU3nnVgugsoQuGGeJRf5nIbLZJLTcl5WbZHzUwzEh0xTBDtJ8vLstNYIxS+nmMS9aQoZQxwWZ5+RrFbe/MPLpkeEUYxePpbNifnHaDJNl4myQZ7E6T/nA2HcdRezLThv8AJoLclSQxHLEAAAAASUVORK5CYII=;" vertex="1" parent="1">
          <mxGeometry x="672.5" y="340" width="35" height="35" as="geometry" />
        </mxCell>
      </root>
    </mxGraphModel>
  </diagram>
</mxfile>
